<svg width="38" height="42" viewBox="0 0 38 42" fill="none" xmlns="http://www.w3.org/2000/svg">
<path d="M14.667 31.8333V18.8333M23.3337 31.8333V18.8333M1.66699 10.1667H36.3337M27.667 10.1667C27.667 6.08033 27.667 4.03933 26.3973 2.76967C25.1277 1.5 23.0867 1.5 19.0003 1.5C14.914 1.5 12.873 1.5 11.6033 2.76967C10.3337 4.03933 10.3337 6.08033 10.3337 10.1667M6.00033 12.3333C6.00033 11.7587 6.2286 11.2076 6.63493 10.8013C7.04126 10.3949 7.59236 10.1667 8.16699 10.1667H29.8337C30.4083 10.1667 30.9594 10.3949 31.3657 10.8013C31.7721 11.2076 32.0003 11.7587 32.0003 12.3333V31.8333C32.0003 35.9197 32.0003 37.9607 30.7307 39.2303C29.461 40.5 27.42 40.5 23.3337 40.5H14.667C10.5807 40.5 8.53966 40.5 7.26999 39.2303C6.00033 37.9607 6.00033 35.9197 6.00033 31.8333V12.3333Z" stroke="black" stroke-width="2" stroke-linecap="round" stroke-linejoin="round"/>
</svg>
